<svg version="1.0" xmlns="http://www.w3.org/2000/svg" width="1600.000000pt" height="1600.000000pt" viewBox="0 0 1600.000000 1600.000000" preserveAspectRatio="xMidYMid meet">
<metadata fill="#6e688c">
Created by potrace 1.16, written by Peter Selinger 2001-2019
</metadata>
<g transform="translate(0.000000,1600.000000) scale(0.100000,-0.100000)" fill="#6e688c" stroke="none">
<path d="M950 8065 l0 -3175 320 0 320 0 0 3175 0 3175 -320 0 -320 0 0 -3175z" fill="#6e688c"/>
<path d="M2850 8065 l0 -3175 325 0 325 0 -2 3173 -3 3172 -322 3 -323 2 0 -3175z" fill="#6e688c"/>
<path d="M4760 8065 l0 -3175 320 0 320 0 0 3175 0 3175 -320 0 -320 0 0 -3175z" fill="#6e688c"/>
<path d="M6660 8065 l0 -3175 320 0 320 0 0 3175 0 3175 -320 0 -320 0 0 -3175z" fill="#6e688c"/>
<path d="M8570 10920 l0 -320 3175 0 3175 0 0 320 0 320 -3175 0 -3175 0 0 -320z" fill="#6e688c"/>
<path d="M8570 9020 l0 -320 3175 0 3175 0 0 320 0 320 -3175 0 -3175 0 0 -320z" fill="#6e688c"/>
<path d="M8570 7110 l0 -320 3175 0 3175 0 0 320 0 320 -3175 0 -3175 0 0 -320z" fill="#6e688c"/>
<path d="M8570 5210 l0 -320 3175 0 3175 0 0 320 0 320 -3175 0 -3175 0 0 -320z" fill="#6e688c"/>
</g>
</svg>