<svg version="1.0" xmlns="http://www.w3.org/2000/svg" width="1200.000000pt" height="1200.000000pt" viewBox="0 0 1200.000000 1200.000000" preserveAspectRatio="xMidYMid meet">
<metadata fill="#6e688c">
Created by potrace 1.16, written by Peter Selinger 2001-2019
</metadata>
<g transform="translate(0.000000,1200.000000) scale(0.100000,-0.100000)" fill="#6e688c" stroke="none">
<path d="M5545 11409 c-716 -60 -1333 -235 -1977 -561 -129 -65 -226 -120 -238 -135 -37 -48 -17 -130 37 -151 15 -6 82 -21 148 -32 955 -168 1953 -520 2823 -997 729 -399 1360 -862 1986 -1457 155 -147 161 -151 203 -151 33 0 49 6 70 28 l28 28 -2 142 c-10 540 -89 1171 -219 1755 -78 348 -240 904 -296 1015 -25 49 -81 111 -135 148 -120 83 -661 241 -1058 309 -299 52 -430 62 -855 65 -223 2 -454 -1 -515 -6z" fill="#6e688c"/>
<path d="M8693 10660 c-36 -15 -56 -54 -50 -102 3 -24 47 -167 99 -318 208 -609 342 -1192 422 -1832 141 -1126 72 -2298 -200 -3380 -48 -194 -52 -227 -28 -263 19 -28 74 -49 106 -39 48 14 401 241 628 404 441 315 815 635 1211 1036 378 384 447 474 469 610 12 75 3 157 -44 376 -99 458 -235 843 -447 1268 -434 865 -1031 1550 -1804 2068 -260 174 -305 195 -362 172z" fill="#6e688c"/>
<path d="M2712 10260 c-95 -20 -155 -61 -362 -246 -846 -756 -1461 -1843 -1679 -2964 -54 -282 -91 -636 -91 -881 l0 -137 31 -26 c33 -28 80 -34 115 -13 12 7 45 41 74 76 293 353 702 769 1065 1082 688 594 1504 1110 2330 1474 349 154 849 334 1190 430 141 39 175 52 198 76 17 19 27 40 27 60 0 64 -18 79 -222 186 -717 378 -1482 659 -2284 838 -214 48 -321 60 -392 45z" fill="#6e688c"/>
<path d="M6260 8495 c-405 -87 -897 -228 -1256 -361 -350 -128 -738 -296 -844 -365 -59 -38 -118 -109 -149 -181 -60 -134 -225 -726 -295 -1058 -97 -457 -173 -1029 -164 -1232 3 -82 8 -104 36 -160 41 -83 169 -227 476 -534 387 -386 717 -666 1142 -970 177 -127 223 -147 344 -152 85 -3 118 1 305 43 597 134 1156 318 1730 572 210 93 263 122 320 179 74 74 119 190 244 624 139 485 256 1122 302 1646 21 240 -4 308 -189 512 -369 408 -818 819 -1252 1146 -246 185 -358 261 -421 286 -83 34 -189 35 -329 5z" fill="#6e688c"/>
<path d="M2884 7229 c-253 -151 -714 -475 -984 -693 -363 -293 -795 -703 -1088 -1036 -193 -217 -201 -298 -86 -780 148 -622 397 -1188 769 -1750 202 -305 376 -521 635 -783 311 -317 627 -567 1021 -810 91 -56 144 -63 184 -23 44 44 42 63 -29 264 -279 795 -437 1534 -512 2402 -21 255 -30 901 -15 1182 34 629 121 1212 271 1807 24 97 38 171 34 186 -9 37 -59 75 -98 75 -20 0 -59 -16 -102 -41z" fill="#6e688c"/>
<path d="M11263 5993 c-11 -10 -53 -58 -94 -107 -133 -161 -351 -398 -529 -576 -1121 -1121 -2509 -1938 -4035 -2375 -181 -52 -207 -68 -209 -132 0 -22 7 -51 16 -65 19 -29 492 -271 768 -393 576 -255 1214 -460 1834 -590 174 -37 275 -33 368 13 74 36 223 161 421 352 810 782 1398 1914 1561 3006 35 231 66 590 66 762 0 57 -3 67 -29 93 -24 23 -38 29 -74 29 -29 0 -52 -6 -64 -17z" fill="#6e688c"/>
<path d="M3408 4039 l-31 -31 6 -206 c25 -800 162 -1601 413 -2415 78 -254 109 -320 179 -386 62 -59 113 -85 265 -139 596 -208 1221 -304 1885 -288 764 17 1386 152 2051 446 197 87 465 227 492 256 32 36 31 103 -3 136 -20 20 -46 29 -123 43 -1849 325 -3517 1174 -4886 2485 -129 124 -137 130 -176 130 -33 0 -48 -6 -72 -31z" fill="#6e688c"/>
</g>
</svg>