<svg version="1.0" xmlns="http://www.w3.org/2000/svg" width="512.000000pt" height="512.000000pt" viewBox="0 0 512.000000 512.000000" preserveAspectRatio="xMidYMid meet">
<metadata fill="#6e688c">
Created by potrace 1.16, written by Peter Selinger 2001-2019
</metadata>
<g transform="translate(0.000000,512.000000) scale(0.100000,-0.100000)" fill="#6e688c" stroke="none">
<path d="M2017 4604 c-290 -284 -526 -522 -524 -528 2 -6 160 -78 351 -159 320 -136 349 -147 365 -133 34 31 109 49 180 43 l67 -5 263 410 c145 226 266 418 268 427 2 10 -76 95 -219 239 l-224 223 -527 -517z" fill="#6e688c"/>
<path d="M2835 4150 c-179 -275 -265 -416 -262 -428 4 -9 15 -42 26 -72 l19 -55 371 -158 370 -157 43 21 43 21 61 381 62 381 -225 235 c-124 130 -228 237 -233 239 -4 2 -128 -182 -275 -408z" fill="#6e688c"/>
<path d="M1082 3682 l-284 -277 314 -458 313 -457 79 2 79 3 264 410 c145 226 275 429 289 452 l25 41 -25 37 c-31 46 -46 95 -46 156 l0 46 -350 162 c-193 88 -356 161 -363 161 -6 -1 -140 -125 -295 -278z" fill="#6e688c"/>
<path d="M3652 3623 l-53 -317 23 -18 c57 -43 47 -46 308 70 134 60 246 114 247 119 4 10 -450 463 -463 463 -5 0 -33 -143 -62 -317z" fill="#6e688c"/>
<path d="M2563 3422 c-32 -43 -116 -84 -187 -89 l-61 -5 -288 -445 c-158 -245 -286 -447 -284 -449 2 -3 350 146 773 329 760 330 769 334 769 362 0 28 -7 31 -349 177 -191 81 -349 148 -350 148 -1 0 -11 -12 -23 -28z" fill="#6e688c"/>
<path d="M4043 3246 c-150 -61 -273 -113 -273 -116 0 -7 1344 -578 1349 -573 4 3 -651 658 -760 759 l-44 42 -272 -112z" fill="#6e688c"/>
<path d="M350 2953 c-190 -184 -345 -340 -345 -346 0 -6 274 -71 615 -147 l615 -137 27 31 c16 17 27 38 25 47 -2 18 -578 889 -587 888 -3 0 -160 -151 -350 -336z" fill="#6e688c"/>
<path d="M3665 2943 c-21 -18 -56 -38 -77 -45 -25 -7 -40 -18 -43 -32 -3 -12 -35 -202 -71 -423 l-65 -402 26 -40 c15 -22 29 -58 32 -80 5 -38 8 -40 52 -50 111 -26 716 -151 730 -151 9 0 174 158 366 350 192 193 356 350 364 350 12 0 12 3 3 12 -6 6 -18 13 -26 14 -7 1 -227 93 -487 204 -261 112 -540 231 -620 265 l-145 62 -39 -34z" fill="#6e688c"/>
<path d="M2562 2603 c-433 -186 -782 -341 -782 -348 0 -6 8 -19 18 -27 10 -8 275 -67 638 -142 l620 -127 45 44 c28 29 60 49 89 58 25 7 46 13 47 14 4 2 133 796 133 820 0 12 -6 27 -13 33 -9 8 -222 -79 -795 -325z" fill="#6e688c"/>
<path d="M110 2403 c0 -4 107 -115 238 -245 l237 -238 302 128 c166 70 303 129 303 132 0 3 -237 54 -528 114 -290 60 -533 111 -539 114 -7 2 -13 0 -13 -5z" fill="#6e688c"/>
<path d="M1767 2063 c-4 -3 -7 -13 -7 -21 0 -8 255 -383 568 -835 312 -451 570 -825 574 -831 5 -7 22 4 46 29 l39 40 98 609 c81 502 96 611 84 614 -21 7 -92 82 -110 117 l-15 30 -625 128 c-343 70 -629 127 -635 127 -6 0 -14 -3 -17 -7z" fill="#6e688c"/>
<path d="M968 1931 c-142 -58 -258 -111 -258 -116 0 -9 97 -107 221 -223 l46 -43 152 236 c83 130 149 240 146 246 -12 19 -55 5 -307 -100z" fill="#6e688c"/>
<path d="M1590 1918 c-14 -5 -59 -8 -102 -5 l-77 5 -165 -240 -164 -240 611 -606 c337 -334 664 -658 727 -719 l116 -113 128 129 c98 98 126 132 120 144 -5 9 -263 385 -574 836 -326 473 -571 820 -580 820 -8 0 -26 -5 -40 -11z" fill="#6e688c"/>
<path d="M3395 1690 l-49 -39 -82 -503 c-44 -277 -79 -505 -77 -508 2 -2 217 209 478 470 384 384 472 476 458 482 -21 9 -650 138 -667 137 -6 0 -33 -18 -61 -39z" fill="#6e688c"/>
</g>
</svg>