<svg version="1.0" xmlns="http://www.w3.org/2000/svg" width="300.000000pt" height="300.000000pt" viewBox="0 0 300.000000 300.000000" preserveAspectRatio="xMidYMid meet">
<metadata fill="#6e688c">
Created by potrace 1.16, written by Peter Selinger 2001-2019
</metadata>
<g transform="translate(0.000000,300.000000) scale(0.100000,-0.100000)" fill="#6e688c" stroke="none">
<path d="M2 1503 l3 -1498 1495 0 1495 0 3 1498 2 1497 -1500 0 -1500 0 2 -1497z m2616 416 l3 -67 61 19 c33 11 62 18 63 17 0 -2 9 -23 18 -47 18 -47 13 -59 -23 -62 -8 0 -32 -8 -53 -17 l-38 -17 40 -56 40 -56 -43 -31 -43 -31 -39 54 c-21 30 -42 55 -45 55 -3 0 -20 -20 -38 -45 -17 -24 -36 -47 -42 -50 -10 -7 -79 40 -79 54 0 5 16 29 36 55 34 45 37 66 9 66 -7 0 -34 9 -59 20 l-45 19 16 46 c10 25 20 45 24 45 3 0 31 -9 62 -19 34 -12 59 -16 63 -10 3 5 5 31 4 57 -3 76 -5 73 53 70 l52 -3 3 -66z m-498 -44 l0 -105 -270 0 -270 0 0 -57 c0 -32 -3 -94 -6 -139 l-7 -81 64 9 c232 34 451 -72 520 -250 26 -69 36 -197 20 -271 -36 -167 -158 -294 -330 -345 -68 -20 -217 -21 -287 -2 -98 26 -201 97 -250 171 l-18 27 80 74 c43 40 82 73 86 74 4 0 10 -9 13 -21 11 -33 74 -98 116 -120 90 -46 219 -31 288 34 53 50 75 109 74 198 -1 83 -16 123 -66 177 -73 76 -244 95 -413 46 -49 -14 -94 -30 -101 -36 -8 -6 -15 -9 -17 -7 -3 4 19 721 23 727 0 1 170 2 376 2 l375 0 0 -105z m-1244 -309 c285 -76 416 -410 277 -704 -34 -72 -121 -159 -194 -194 -156 -75 -343 -51 -452 58 l-37 37 0 -281 0 -282 -115 0 -115 0 0 675 0 675 111 0 111 0 -4 -60 c-1 -33 -2 -60 0 -60 1 0 17 16 34 35 82 94 247 138 384 101z" fill="#6e688c"/>
<path d="M609 1362 c-204 -106 -192 -441 17 -528 50 -21 157 -18 202 5 175 91 201 372 45 500 -72 60 -177 69 -264 23z" fill="#6e688c"/>
</g>
</svg>