<svg version="1.0" xmlns="http://www.w3.org/2000/svg" width="400.000000pt" height="400.000000pt" viewBox="0 0 400.000000 400.000000" preserveAspectRatio="xMidYMid meet">
<metadata fill="#6e688c">
Created by potrace 1.16, written by Peter Selinger 2001-2019
</metadata>
<g transform="translate(0.000000,400.000000) scale(0.100000,-0.100000)" fill="#6e688c" stroke="none">
<path d="M2200 3390 c-19 -10 -52 -36 -72 -57 -126 -131 -121 -313 10 -390 46 -27 51 -28 197 -28 160 0 221 11 257 47 32 32 21 138 -22 223 -41 82 -127 177 -183 204 -55 27 -139 27 -187 1z m-36 -127 c-3 -21 -9 -64 -15 -96 -9 -52 -8 -61 13 -98 33 -60 159 -117 263 -120 l50 -1 -55 -10 c-208 -36 -388 79 -350 224 12 42 48 101 78 126 21 17 21 17 16 -25z" fill="#6e688c"/>
<path d="M1712 2819 c-317 -31 -580 -194 -845 -524 -91 -114 -133 -185 -123 -210 9 -23 93 -18 182 11 95 30 235 95 250 115 6 8 14 46 16 84 8 112 56 181 178 257 170 105 309 115 470 33 30 -15 108 -64 174 -108 65 -43 143 -94 171 -111 l53 -31 -81 -70 c-100 -86 -269 -271 -339 -370 -29 -41 -60 -75 -67 -75 -46 -1 -310 -103 -466 -180 -350 -173 -571 -335 -728 -530 -101 -126 -177 -282 -162 -329 13 -42 156 -54 274 -25 163 41 372 149 558 287 97 72 347 310 448 427 l40 45 220 -1 c231 0 343 -12 578 -59 307 -63 491 -153 542 -265 16 -37 17 -47 6 -83 -26 -84 -25 -115 2 -156 77 -116 422 -361 508 -361 124 0 -59 384 -325 683 -189 212 -441 377 -753 492 -180 66 -278 88 -400 88 -57 0 -103 2 -103 5 0 18 277 330 331 372 l39 31 67 -26 c191 -77 336 -50 515 94 82 66 161 153 190 209 35 69 19 144 -42 195 -101 85 -283 50 -466 -89 l-44 -34 -153 64 c-317 132 -491 167 -715 145z m285 -64 c89 -21 229 -75 401 -154 277 -128 381 -152 501 -112 36 12 75 28 88 36 12 8 30 15 39 15 15 0 14 -4 -6 -25 -43 -45 -144 -63 -327 -57 -100 4 -207 37 -393 124 -196 91 -318 137 -432 164 -43 10 -78 22 -78 27 0 12 122 2 207 -18z m1054 -121 c30 -37 -49 -82 -160 -91 -75 -6 -161 3 -161 17 0 21 159 85 225 92 45 5 83 -3 96 -18z m-466 -404 c-9 -15 -36 -12 -111 14 -126 43 -186 76 -321 172 -73 53 -136 100 -139 105 -3 6 125 -56 286 -136 160 -80 288 -150 285 -155z m-1425 260 c0 -6 -11 -33 -25 -60 -14 -27 -30 -73 -36 -101 -12 -56 -59 -119 -90 -119 -10 0 -19 4 -19 8 0 16 81 195 102 226 33 48 68 72 68 46z m1074 -715 c166 -29 518 -167 596 -233 40 -34 11 -26 -105 29 -209 98 -406 148 -672 168 -78 6 -149 14 -159 18 -16 6 -15 7 2 20 25 18 227 17 338 -2z m-825 -270 c-3 -2 -71 -27 -152 -55 -245 -83 -418 -174 -528 -277 -52 -48 -66 -45 -23 6 50 60 254 179 419 246 115 46 303 100 284 80z m62 -42 c-28 -40 -225 -231 -300 -292 -158 -130 -380 -260 -477 -282 -46 -10 -56 -10 -78 5 -30 19 -31 26 -11 94 49 163 395 378 759 472 138 36 131 35 107 3z" fill="#6e688c"/>
</g>
</svg>